<?xml version="1.0" encoding="UTF-8"?>
<svg id="Layer_1" data-name="Layer 1" xmlns="http://www.w3.org/2000/svg" viewBox="0 0 50 43.7">
  <path d="m35.31,0C30.15,0,26.89,2.51,25,4.78,23.11,2.51,19.85,0,14.69,0,5.9,0,0,8.14,0,15.74c0,11.07,21.26,25.9,23.68,27.56.4.27.86.41,1.32.41s.92-.14,1.32-.41c2.42-1.65,23.68-16.49,23.68-27.56,0-7.6-5.9-15.74-14.69-15.74h0Zm-10.31,38.52C16.63,32.57,4.67,21.91,4.67,15.74c0-4.64,3.48-11.07,10.02-11.07,5.95,0,8.05,5.14,8.13,5.34.34.9,1.21,1.49,2.17,1.5h.02c.96,0,1.82-.59,2.18-1.48.09-.22,2.19-5.35,8.13-5.35,6.54,0,10.02,6.43,10.02,11.07,0,6.16-11.96,16.82-20.33,22.78h0Z"/>
</svg>